<?xml version="1.0" standalone="no"?>
<!DOCTYPE svg PUBLIC "-//W3C//DTD SVG 20010904//EN"
 "http://www.w3.org/TR/2001/REC-SVG-20010904/DTD/svg10.dtd">
<svg version="1.0" xmlns="http://www.w3.org/2000/svg"
 width="80.000000pt" height="80.000000pt" viewBox="0 0 80.000000 80.000000"
 preserveAspectRatio="xMidYMid meet">

<g transform="translate(0.000000,80.000000) scale(0.100000,-0.100000)"
stroke="none">
<path d="M243 769 c-29 -11 -53 -24 -53 -28 0 -5 12 -35 26 -67 14 -33 35 -80
45 -106 l19 -48 -68 26 c-106 41 -144 54 -154 54 -9 0 -32 -48 -43 -92 -6 -24
-2 -27 95 -63 56 -22 103 -42 105 -46 3 -4 -17 -16 -43 -27 -26 -11 -73 -32
-105 -46 l-57 -26 20 -52 c10 -28 23 -55 28 -60 5 -5 46 9 94 31 140 64 134
68 82 -55 -34 -83 -42 -109 -32 -116 18 -11 109 -41 112 -37 2 2 22 53 46 112
23 59 44 107 45 105 2 -2 22 -48 45 -103 23 -55 44 -103 47 -107 4 -8 101 25
114 39 4 4 -12 55 -37 112 -24 57 -43 106 -41 108 3 2 51 -14 107 -36 57 -22
107 -38 111 -36 8 5 39 92 39 110 0 6 -47 28 -105 49 -58 22 -102 42 -98 46 4
3 52 26 105 49 l97 43 -19 51 c-11 28 -23 54 -28 59 -5 5 -53 -11 -108 -36
-54 -24 -100 -43 -102 -41 -2 1 15 46 37 100 23 54 41 101 41 105 0 5 -25 18
-57 30 -66 25 -58 31 -110 -98 -20 -51 -40 -89 -44 -85 -4 5 -25 51 -47 103
-22 52 -44 95 -49 97 -4 1 -32 -7 -60 -18z"/>
</g>
</svg>
