<svg width="40" height="40" viewBox="0 0 40 40" fill="none" xmlns="http://www.w3.org/2000/svg">
<rect width="40" height="40" rx="11" fill="#FFB57F"/>
<path d="M5.4514 12.398C6.83932 11.5787 8.61405 12.0649 9.41536 13.4839L15.523 24.2999C16.3243 25.719 15.8488 27.5335 14.4609 28.3527C13.0729 29.172 11.2982 28.6858 10.4969 27.2667L4.38925 16.4508C3.58794 15.0318 4.06348 13.2173 5.4514 12.398Z" fill="black"/>
<path d="M17.3654 12.398C18.7534 11.5787 20.5281 12.0649 21.3294 13.4839L28.888 26.8692L26.3749 28.3527C24.987 29.172 23.2122 28.6858 22.411 27.2667L16.3033 16.4508C15.502 15.0318 15.9775 13.2173 17.3654 12.398Z" fill="black"/>
<path d="M30.8673 12.6621C31.7308 11.7793 33.1307 11.7793 33.994 12.6621L35.3271 14.025C36.0383 14.7522 36.1799 15.8785 35.6715 16.7659L32.4307 22.4224L29.19 16.7659C28.6816 15.8785 28.8231 14.7522 29.5343 14.025L30.8673 12.6621Z" fill="black"/>
</svg>
