<svg width="40" height="40" viewBox="0 0 40 40" fill="none" xmlns="http://www.w3.org/2000/svg">
<path d="M3.48222 10.4975C5.21712 9.47337 7.43553 10.0811 8.43717 11.8549L16.0717 25.3749C17.0733 27.1487 16.479 29.4169 14.7441 30.4409C13.0092 31.465 10.7908 30.8572 9.7891 29.0834L2.15453 15.5635C1.15289 13.7897 1.74732 11.5216 3.48222 10.4975Z" fill="black"/>
<path d="M31.9484 10.8276C33.0277 9.72413 34.7776 9.72413 35.8567 10.8276L37.5231 12.5312C38.4121 13.4402 38.5891 14.8482 37.9536 15.9574L33.9026 23.028L29.8517 15.9574C29.2162 14.8482 29.3931 13.4402 30.2821 12.5312L31.9484 10.8276Z" fill="black"/>
<path d="M17.2673 10.4623C19.0023 9.43822 21.2207 10.046 22.2223 11.8198L31.6705 28.5514L28.5292 30.4057C26.7943 31.4299 24.5758 30.8221 23.5743 29.0482L15.9397 15.5284C14.938 13.7546 15.5325 11.4864 17.2673 10.4623Z" fill="black"/>
</svg>
