<svg width="32" height="32" viewBox="0 0 32 32" fill="none" xmlns="http://www.w3.org/2000/svg">
<g clip-path="url(#clip0_2149_3648)">
<path d="M2.78343 8.39799C4.17135 7.5787 5.94608 8.0649 6.74739 9.48394L12.855 20.2999C13.6563 21.719 13.1808 23.5335 11.7929 24.3527C10.405 25.172 8.63026 24.6858 7.82894 23.2667L1.72128 12.4508C0.919969 11.0318 1.39551 9.21727 2.78343 8.39799Z" fill="black"/>
<path d="M25.5587 8.66208C26.4222 7.77931 27.8221 7.77931 28.6854 8.66208L30.0185 10.025C30.7297 10.7522 30.8713 11.8785 30.3629 12.7659L27.1221 18.4224L23.8814 12.7659C23.373 11.8785 23.5145 10.7522 24.2257 10.025L25.5587 8.66208Z" fill="black"/>
<path d="M13.8146 8.37064C15.2026 7.55136 16.9773 8.03755 17.7786 9.45659L25.3372 22.8419L22.8241 24.3254C21.4362 25.1447 19.6614 24.6584 18.8602 23.2394L12.7525 12.4235C11.9512 11.0044 12.4268 9.18992 13.8146 8.37064Z" fill="black"/>
</g>
<defs>
<clipPath id="clip0_2149_3648">
<rect width="32" height="32" fill="white"/>
</clipPath>
</defs>
</svg>
