<svg width="24" height="24" viewBox="0 0 24 24" fill="none" xmlns="http://www.w3.org/2000/svg">
<g clip-path="url(#clip0_2149_3648)">
<path d="M2.08855 6.29849C3.12949 5.68402 4.46054 6.04867 5.06152 7.11295L9.64226 15.2249C10.2432 16.2892 9.8866 17.6501 8.84565 18.2645C7.80471 18.879 6.47367 18.5143 5.87268 17.45L1.29194 9.33811C0.690954 8.27383 1.04761 6.91295 2.08855 6.29849Z" fill="black"/>
<path d="M19.169 6.49656C19.8166 5.83448 20.8665 5.83448 21.514 6.49656L22.5138 7.51873C23.0472 8.06412 23.1534 8.90891 22.7721 9.57444L20.3415 13.8168L17.911 9.57444C17.5297 8.90891 17.6358 8.06412 18.1692 7.51873L19.169 6.49656Z" fill="black"/>
<path d="M10.362 6.277C11.403 5.66254 12.734 6.02718 13.335 7.09146L19.0039 17.1304L17.1191 18.243C16.0782 18.8575 14.7471 18.4928 14.1462 17.4285L9.56538 9.31662C8.96439 8.25235 9.32105 6.89146 10.362 6.277Z" fill="black"/>
</g>
<defs>
<clipPath id="clip0_2149_3648">
<rect width="24" height="24" fill="white"/>
</clipPath>
</defs>
</svg>
