<svg width="96" height="96" viewBox="0 0 96 96" fill="none" xmlns="http://www.w3.org/2000/svg">
<rect width="96" height="96" rx="15" fill="#E8F99B"/>
<path d="M44.6803 15.641C39.2898 16.6192 34.7942 19.5122 32.4631 23.5083C31.2976 25.4855 30.6732 29.2527 30.6732 34.4143V37.3906H38.4573H46.2621L46.3246 32.1249C46.387 27.4836 46.4286 26.7968 46.7825 26.0891C47.5109 24.6114 49.4673 24.1951 50.6537 25.2566C51.6527 26.1724 51.7151 27.1298 51.6527 37.8693L51.5903 47.4849L51.0699 48.5255C50.6329 49.3789 50.4039 49.6286 49.6963 49.8576C48.9262 50.1281 48.7389 50.1281 47.8855 49.7951C46.7825 49.3789 46.2621 48.6921 46.1164 47.4433L46.0124 46.5483H38.6654H31.2976V55.2898V64.0312H38.6862H46.0748V61.0134C46.0748 59.3483 46.1373 57.9955 46.2413 57.9955C46.3246 57.9955 47.053 58.495 47.8439 59.0986C50.3207 60.9509 52.069 61.5337 55.1077 61.5337C58.5626 61.5129 61.3724 60.4306 63.5369 58.266C65.1812 56.601 66.0345 54.9984 66.7213 52.2719C67.1792 50.4403 67.2 50.149 67.2 39.3678C67.2 28.5659 67.1792 28.2953 66.7213 26.6719C64.9314 20.2823 61.0394 16.7857 54.4625 15.641C52.2771 15.2664 46.7825 15.2664 44.6803 15.641Z" fill="#2F311D"/>
<path d="M36.2094 69.5967C36.147 70.1378 36.0845 71.3449 36.0845 72.3023C36.0845 73.2389 36.0013 74.0715 35.918 74.1339C35.814 74.1963 34.586 73.8633 33.1499 73.4262C31.7346 72.9684 30.5067 72.677 30.4442 72.7602C30.2985 72.9267 28.8 76.7771 28.8 76.9853C28.8 77.0685 30.028 77.6097 31.5265 78.2132C33.4621 79.0041 34.2114 79.3996 34.1281 79.5869C34.0657 79.7534 33.3164 80.8981 32.4631 82.1469L30.8813 84.3947L32.8377 85.7892C33.92 86.5384 34.8358 87.1628 34.8982 87.1628C34.9815 87.1628 35.7932 86.0806 36.7297 84.7693C37.6871 83.4581 38.4988 82.3758 38.5613 82.3758C38.6237 82.3758 39.4771 83.4581 40.4345 84.7902C41.3919 86.1014 42.2868 87.142 42.3909 87.1004C42.7655 86.9755 46.054 84.5612 46.054 84.4155C46.0748 84.3323 45.3255 83.2084 44.4097 81.9388C43.494 80.6484 42.7447 79.5453 42.7447 79.4412C42.7447 79.358 43.8894 78.8376 45.3047 78.3173C46.6992 77.7762 47.9063 77.2558 48.0104 77.1726C48.1977 77.0061 46.6367 72.7394 46.3454 72.6562C46.1997 72.5937 43.8894 73.4054 41.4543 74.3628C41.1213 74.4877 41.0797 74.3836 41.0797 73.4887C41.0797 72.9059 41.0172 71.5947 40.9548 70.5541L40.8091 68.6393H38.5821H36.3551L36.2094 69.5967Z" fill="#2F311D"/>
</svg>
