<svg width="98" height="98" viewBox="0 0 98 98" fill="none" xmlns="http://www.w3.org/2000/svg">
<rect width="98" height="98" rx="21" fill="#DBEA93"/>
<g clip-path="url(#clip0_34_46)">
<path d="M43.6396 9.30535C33.3477 10.2214 25.445 13.4275 20.4522 18.7099C17.1441 22.1908 15.4288 26.0992 15.245 30.3741L15.1531 32.3588H26.6396H38.1261L38.2793 31.1069C38.5243 29.4275 39.9027 27.1679 41.2811 26.2519C43.4865 24.8168 44.9261 24.4809 48.8775 24.4504C52.5225 24.4199 52.6144 24.4504 54.6973 25.4886C57.2396 26.771 58.618 28.5725 58.9549 30.9542C59.5369 35.2595 57.3315 38.4351 52.7676 39.8397C48.6018 41.1221 45.7838 41.4275 36.7784 41.5802L28.0793 41.7634L28.2937 47.9008C28.3856 51.2595 28.5694 55.7786 28.6919 57.916L28.8757 61.8244H39.5045H50.1639L50.3477 60.5115C50.4396 59.8092 50.5928 58.0382 50.7153 56.5725C50.8378 54.9237 51.0522 53.8855 51.2667 53.8855C51.4504 53.8855 53.2576 53.7328 55.2793 53.5802C62.018 53.0305 66.8883 51.7481 71.8198 49.2137C74.2396 47.9618 75.4036 47.1069 77.3639 45.1832C80.0901 42.4962 81.3766 40.2672 82.2649 36.7863C83.0306 33.8244 82.7243 28.2672 81.6522 25.1832C78.2522 15.4428 67.1639 9.64123 51.0522 9.18321C48.4793 9.09161 45.1712 9.15268 43.6396 9.30535Z" fill="black"/>
<path d="M33.6847 68.145C32.9189 68.4198 32.245 68.6641 32.1838 68.7252C32.1225 68.7557 32.7964 70.0687 33.6847 71.5954C34.573 73.1221 35.2468 74.4351 35.1856 74.4656C35.1243 74.5267 33.4703 74.1298 31.5405 73.5496C29.6108 72.9695 27.8036 72.5114 27.4973 72.5114C26.9459 72.5114 25.2612 75.5649 25.6288 75.9008C25.782 76.0229 27.3748 76.542 29.2126 77.0611C31.0504 77.5496 32.582 78.0382 32.6432 78.0992C32.7045 78.1298 31.173 78.7099 29.2432 79.3511C27.2829 79.9924 25.7207 80.6641 25.7207 80.8779C25.7207 81.0916 26.1189 81.8855 26.609 82.6794L27.5279 84.084L31.1117 82.8626C33.1027 82.2214 34.8486 81.6718 35.0018 81.6718C35.1549 81.6718 34.6342 82.8626 33.8378 84.3282C33.0721 85.7939 32.4901 87.1374 32.582 87.3511C32.7045 87.7176 36.0126 88.6336 36.227 88.3588C36.2883 88.2977 37.054 86.8931 37.9423 85.2748C38.8306 83.626 39.5964 82.2824 39.6576 82.2824C39.7189 82.2824 40.4847 83.5954 41.3423 85.1832C42.2 86.771 43.0576 88.145 43.2108 88.2672C43.6396 88.5114 46.8558 87.4427 46.8558 87.0458C46.8558 86.8626 46.182 85.5191 45.3549 84.0534C44.5279 82.5572 43.9153 81.3664 44.0072 81.3664C44.0991 81.3664 45.8757 81.855 47.9892 82.4656C52.2775 83.7481 52.1856 83.7786 53.1045 81.1832L53.5333 79.9008L50.0414 78.9237C48.1117 78.374 46.5495 77.8855 46.5495 77.8244C46.5495 77.7939 48.0811 77.2443 49.9189 76.6336C53.0432 75.5954 53.2883 75.4427 53.1045 74.8626C52.9207 74.2214 51.4811 71.9008 51.2973 71.9008C51.236 71.9008 49.6432 72.4504 47.7748 73.1221C45.9063 73.7939 44.2522 74.3435 44.0991 74.3435C43.9459 74.3435 44.5279 73.0916 45.3856 71.5649C46.2126 70.0382 46.8558 68.7557 46.7946 68.7252C46.5802 68.542 43.6703 67.6259 43.3027 67.6259C43.0883 67.6259 42.1694 69.0305 41.2504 70.7099L39.5658 73.7939L37.8198 70.7099C36.6865 68.6947 35.8901 67.6259 35.5531 67.6565C35.2775 67.6565 34.4504 67.9008 33.6847 68.145Z" fill="black"/>
</g>
<defs>
<clipPath id="clip0_34_46">
<rect width="68" height="80" fill="white" transform="translate(15 9)"/>
</clipPath>
</defs>
</svg>
