<?xml version="1.0" standalone="no"?>
<!DOCTYPE svg PUBLIC "-//W3C//DTD SVG 20010904//EN"
 "http://www.w3.org/TR/2001/REC-SVG-20010904/DTD/svg10.dtd">
<svg version="1.0" xmlns="http://www.w3.org/2000/svg"
 width="896.000000pt" height="225.000000pt" viewBox="0 0 896.000000 225.000000"
 preserveAspectRatio="xMidYMid meet">

<g transform="translate(0.000000,225.000000) scale(0.100000,-0.100000)"
 stroke="none">
<path d="M7745 2235 c-131 -25 -225 -54 -312 -95 -218 -106 -363 -296 -363
-478 0 -59 0 -60 31 -66 41 -8 285 -8 465 1 l141 6 12 47 c27 104 109 160 249
168 155 8 258 -31 297 -115 24 -49 24 -157 1 -201 -35 -68 -142 -119 -301
-142 -38 -6 -177 -14 -308 -17 l-238 -6 5 -26 c3 -14 8 -129 11 -256 3 -126 8
-242 11 -257 l6 -28 276 0 c152 0 287 3 299 6 19 5 22 15 28 87 11 146 -4 131
148 144 266 24 463 99 593 228 121 119 160 225 151 404 -8 160 -39 236 -136
343 -106 115 -224 178 -441 235 -85 23 -119 26 -320 29 -170 3 -245 0 -305
-11z"/>
<path d="M38 2123 c-21 -2 -38 -7 -38 -11 0 -4 158 -481 352 -1060 l352 -1052
414 2 414 3 222 667 c122 367 227 673 233 679 9 9 16 -4 31 -52 11 -35 88
-278 172 -539 83 -261 172 -539 197 -617 l45 -143 322 0 c176 0 364 3 417 6
l95 7 46 136 c25 75 188 550 362 1056 174 505 316 921 316 923 0 6 -728 -3
-734 -9 -3 -3 -62 -219 -131 -480 -165 -622 -265 -991 -275 -1008 -9 -17 -15
0 -286 876 l-189 613 -377 0 -377 0 -54 -167 c-248 -771 -432 -1333 -437
-1333 -8 0 -20 43 -237 873 l-166 637 -326 -2 c-179 -1 -343 -3 -363 -5z"/>
<path d="M4325 2118 c-3 -7 -4 -485 -3 -1063 l3 -1050 343 -3 342 -2 0 435 0
435 525 0 525 0 0 -435 0 -435 347 0 346 0 -6 1057 c-4 581 -9 1058 -10 1060
-2 2 -155 6 -340 10 l-337 6 0 -416 0 -417 -525 0 -525 0 0 408 0 409 -182 6
c-299 11 -498 9 -503 -5z"/>
<path d="M7575 598 c-16 -6 -32 -12 -34 -14 -2 -2 16 -37 39 -79 23 -42 40
-78 38 -80 -2 -2 -50 10 -107 27 -115 34 -117 33 -145 -34 l-16 -37 103 -32
102 -32 -84 -28 c-46 -16 -89 -33 -96 -39 -16 -13 -10 -39 18 -73 l22 -28 93
32 c51 17 96 28 100 25 3 -4 -9 -36 -26 -72 -18 -36 -30 -69 -27 -74 3 -5 24
-15 45 -21 49 -15 55 -11 105 81 21 38 41 70 44 70 3 0 25 -34 49 -75 24 -41
48 -78 54 -81 14 -9 89 17 95 32 3 7 -12 43 -32 79 -21 36 -35 68 -33 70 2 3
45 -6 94 -20 119 -33 121 -33 143 17 18 42 14 68 -12 68 -21 0 -147 41 -147
48 0 4 38 20 85 36 47 15 85 30 85 33 0 12 -51 93 -59 93 -4 0 -47 -13 -96
-30 -49 -16 -90 -28 -93 -25 -2 2 12 34 32 70 20 36 36 69 36 74 0 11 -86 35
-103 28 -7 -3 -27 -31 -44 -63 -56 -104 -55 -103 -88 -42 -60 112 -71 120
-140 96z"/>
</g>
</svg>
