<svg version="1.0" xmlns="http://www.w3.org/2000/svg"
 width="500.000000pt" height="250.000000pt" viewBox="0 0 500.000000 250.000000"
 preserveAspectRatio="xMidYMid meet">

<g transform="translate(0.000000,375.000000) scale(0.100000,-0.100000)">
<path d="M2250 2485 l0 -835 203 2 202 3 5 548 c5 528 6 549 24 563 23 16 54
18 76 4 13 -8 16 -85 20 -562 l5 -553 208 -3 208 -2 -3 612 -3 613 -28 48
c-35 59 -113 113 -188 129 -72 14 -149 -2 -245 -53 l-74 -38 0 179 0 180 -205
0 -205 0 0 -835z"/>
<path d="M3678 3305 c-126 -32 -228 -107 -274 -202 -24 -49 -28 -70 -32 -184
l-5 -129 187 0 186 0 0 130 c0 126 1 132 25 155 27 28 52 31 81 11 18 -14 19
-30 22 -278 3 -304 1 -311 -65 -316 -33 -2 -44 1 -57 20 -9 12 -16 30 -16 40
0 17 -14 18 -175 18 l-175 0 0 -210 0 -210 180 0 180 0 0 75 0 75 48 -34 c88
-64 202 -72 301 -21 116 58 149 146 158 415 13 417 -39 555 -238 632 -71 27
-248 34 -331 13z"/>
<path d="M754 2978 c3 -24 38 -326 76 -673 39 -346 72 -636 75 -642 3 -10 58
-13 229 -13 l224 0 5 23 c3 12 27 151 53 309 27 158 51 285 54 282 3 -3 21
-141 40 -307 l35 -302 226 -3 227 -2 6 32 c3 18 44 317 91 663 47 347 87 640
90 653 l5 22 -175 0 c-96 0 -175 -4 -175 -8 0 -18 -100 -708 -104 -717 -3 -5
-5 -2 -5 8 -2 32 -60 631 -66 675 l-6 42 -177 -2 -176 -3 -50 -377 c-28 -208
-52 -375 -55 -372 -5 5 -69 674 -71 732 l0 22 -191 0 -191 0 6 -42z"/>
<path d="M3510 1940 l0 -60 -27 6 c-16 4 -38 11 -51 15 -41 15 -50 10 -66 -38
-9 -25 -15 -47 -13 -48 1 -1 28 -12 59 -24 36 -15 55 -27 51 -35 -3 -6 -19
-30 -35 -53 -15 -23 -28 -44 -28 -46 0 -2 19 -17 42 -32 47 -31 37 -36 98 45
l26 33 37 -52 c20 -28 40 -51 44 -51 5 0 25 13 45 29 l38 28 -40 55 -39 56 59
22 c33 12 60 25 60 29 0 3 -7 27 -17 53 l-16 46 -49 -19 c-27 -10 -53 -19 -58
-19 -6 0 -10 20 -10 44 0 69 -5 76 -61 76 l-49 0 0 -60z"/>
</g>
</svg>
