<?xml version="1.0" standalone="no"?>
<!DOCTYPE svg PUBLIC "-//W3C//DTD SVG 20010904//EN"
 "http://www.w3.org/TR/2001/REC-SVG-20010904/DTD/svg10.dtd">
<svg version="1.0" xmlns="http://www.w3.org/2000/svg"
 width="222.000000pt" height="262.000000pt" viewBox="0 0 222.000000 262.000000"
 preserveAspectRatio="xMidYMid meet">

<g transform="translate(0.000000,262.000000) scale(0.100000,-0.100000)" stroke="none">
<path d="M935 2610 c-336 -30 -594 -135 -757 -308 -108 -114 -164 -242 -170
-382 l-3 -65 375 0 375 0 5 41 c8 55 53 129 98 159 72 47 119 58 248 59 119 1
122 0 190 -34 83 -42 128 -101 139 -179 19 -141 -53 -245 -202 -291 -136 -42
-228 -52 -522 -57 l-284 -6 7 -201 c3 -110 9 -258 13 -328 l6 -128 347 0 348
0 6 43 c3 23 8 81 12 129 4 54 11 88 18 88 6 0 65 5 131 10 220 18 379 60 540
143 79 41 117 69 181 132 89 88 131 161 160 275 25 97 15 279 -20 380 -111
319 -473 509 -999 524 -84 3 -192 1 -242 -4z"/>
<path d="M610 683 c-25 -9 -47 -17 -49 -19 -2 -1 20 -44 49 -94 29 -50 51 -93
49 -94 -2 -2 -56 11 -119 30 -63 19 -122 34 -132 34 -18 0 -73 -100 -61 -111
5 -4 57 -21 117 -38 60 -16 110 -32 112 -34 2 -1 -48 -20 -111 -41 -64 -21
-115 -43 -115 -50 0 -7 13 -33 29 -59 l30 -46 117 40 c65 21 122 39 127 39 5
0 -12 -39 -38 -87 -25 -48 -44 -92 -41 -99 4 -12 112 -42 119 -33 2 2 27 48
56 101 29 54 54 98 56 98 2 0 27 -43 55 -95 28 -52 56 -97 61 -101 14 -8 119
27 119 40 0 6 -22 50 -49 98 -27 49 -47 88 -44 88 3 0 61 -16 130 -36 140 -42
137 -43 167 42 l14 42 -114 32 c-63 18 -114 34 -114 36 0 1 50 19 110 39 102
34 110 39 104 58 -6 21 -53 97 -59 97 -2 0 -54 -18 -115 -40 -61 -22 -115 -40
-120 -40 -5 0 14 41 42 91 27 50 48 92 46 93 -7 6 -102 36 -114 36 -7 0 -37
-46 -67 -101 l-55 -101 -57 101 c-37 66 -63 101 -74 100 -9 0 -36 -8 -61 -16z"/>
</g>
</svg>
