<?xml version="1.0" standalone="no"?>
<!DOCTYPE svg PUBLIC "-//W3C//DTD SVG 20010904//EN"
 "http://www.w3.org/TR/2001/REC-SVG-20010904/DTD/svg10.dtd">
<svg version="1.0" xmlns="http://www.w3.org/2000/svg"
 width="500.000000pt" height="500.000000pt" viewBox="0 0 500.000000 500.000000"
 preserveAspectRatio="xMidYMid meet">

<g transform="translate(0.000000,500.000000) scale(0.100000,-0.100000)"
 stroke="none">
<path d="M2333 4185 c-259 -47 -475 -186 -587 -378 -56 -95 -86 -276 -86 -524
l0 -143 374 0 375 0 3 253 c3 223 5 256 22 290 35 71 129 91 186 40 48 -44 51
-90 48 -606 l-3 -462 -25 -50 c-21 -41 -32 -53 -66 -64 -37 -13 -46 -13 -87 3
-53 20 -78 53 -85 113 l-5 43 -353 0 -354 0 0 -420 0 -420 355 0 355 0 0 145
c0 80 3 145 8 145 4 0 39 -24 77 -53 119 -89 203 -117 349 -117 166 1 301 53
405 157 79 80 120 157 153 288 22 88 23 102 23 620 0 519 -1 532 -23 610 -86
307 -273 475 -589 530 -105 18 -369 18 -470 0z"/>
<path d="M1926 1594 c-3 -26 -6 -84 -6 -130 0 -45 -4 -85 -8 -88 -5 -3 -64 13
-133 34 -68 22 -127 36 -130 32 -7 -8 -79 -193 -79 -203 0 -4 59 -30 131 -59
93 -38 129 -57 125 -66 -3 -8 -39 -63 -80 -123 l-76 -108 94 -67 c52 -36 96
-66 99 -66 4 0 43 52 88 115 46 63 85 115 88 115 3 0 44 -52 90 -116 46 -63
89 -113 94 -111 18 6 176 122 176 129 1 4 -35 58 -79 119 -44 62 -80 115 -80
120 0 4 55 29 123 54 67 26 125 51 130 55 9 8 -66 213 -80 217 -7 3 -118 -36
-235 -82 -16 -6 -18 -1 -18 42 0 28 -3 91 -6 141 l-7 92 -107 0 -107 0 -7 -46z"/>
</g>
</svg>
